<svg width="117" height="41" viewBox="0 0 117 41" fill="none" xmlns="http://www.w3.org/2000/svg">
<path d="M46.3815 7.25706V5.74898H56.9107V7.25706H52.4961V19.7879H50.7961V7.25706H46.3815ZM59.5344 19.7879V5.74898H61.2344V12.7136H61.3989L67.7055 5.74898H69.9265L64.0312 12.0829L69.9265 19.7879H67.87L62.9893 13.262L61.2344 15.2362V19.7879H59.5344ZM72.1269 19.7879V5.74898H73.8269V12.7136H73.9915L80.298 5.74898H82.519L76.6238 12.0829L82.519 19.7879H80.4625L75.5818 13.262L73.8269 15.2362V19.7879H72.1269Z" fill="#1A1A1A"/>
<path d="M56.7462 27.2552C56.5953 26.7937 56.3966 26.3801 56.1498 26.0145C55.9076 25.6443 55.6174 25.329 55.2792 25.0685C54.9456 24.808 54.5663 24.6092 54.1413 24.4721C53.7163 24.335 53.2501 24.2665 52.7429 24.2665C51.9111 24.2665 51.1548 24.4813 50.4739 24.9109C49.793 25.3404 49.2514 25.9734 48.8493 26.8097C48.4471 27.646 48.246 28.6719 48.246 29.8875C48.246 31.1032 48.4494 32.1291 48.8561 32.9654C49.2628 33.8017 49.8135 34.4347 50.5082 34.8642C51.2028 35.2938 51.9843 35.5086 52.8525 35.5086C53.6569 35.5086 54.3652 35.3372 54.9776 34.9945C55.5945 34.6472 56.0744 34.1582 56.4171 33.5275C56.7644 32.8923 56.9381 32.1451 56.9381 31.286L57.4591 31.3956H53.2364V29.8875H58.5833V31.3956C58.5833 32.5518 58.3365 33.5572 57.8429 34.4118C57.354 35.2664 56.6776 35.929 55.8139 36.3997C54.9547 36.8659 53.9676 37.0989 52.8525 37.0989C51.6095 37.0989 50.5173 36.8065 49.5759 36.2215C48.639 35.6365 47.9079 34.8048 47.3823 33.7263C46.8613 32.6478 46.6008 31.3682 46.6008 29.8875C46.6008 28.777 46.7494 27.7785 47.0464 26.8919C47.348 26.0008 47.773 25.2422 48.3214 24.6161C48.8698 23.99 49.5188 23.5102 50.2682 23.1766C51.0177 22.843 51.8426 22.6762 52.7429 22.6762C53.4832 22.6762 54.1733 22.7881 54.8131 23.012C55.4574 23.2314 56.031 23.5444 56.5336 23.9512C57.0409 24.3533 57.4636 24.8355 57.8018 25.3976C58.14 25.9551 58.3731 26.5743 58.501 27.2552H56.7462ZM61.2756 36.907V26.3778H62.8385V27.9682H62.9482C63.1401 27.4472 63.4874 27.0245 63.9901 26.7C64.4928 26.3755 65.0595 26.2133 65.6901 26.2133C65.8089 26.2133 65.9575 26.2156 66.1357 26.2202C66.3139 26.2247 66.4487 26.2316 66.5401 26.2407V27.8859C66.4853 27.8722 66.3596 27.8516 66.1631 27.8242C65.9712 27.7922 65.7678 27.7762 65.553 27.7762C65.0412 27.7762 64.5842 27.8836 64.182 28.0984C63.7845 28.3086 63.4691 28.6011 63.2361 28.9758C63.0076 29.346 62.8933 29.7687 62.8933 30.244V36.907H61.2756ZM71.5562 37.1538C70.889 37.1538 70.2835 37.0281 69.7397 36.7768C69.1959 36.5208 68.764 36.153 68.4441 35.6731C68.1242 35.1887 67.9643 34.6037 67.9643 33.9182C67.9643 33.315 68.0831 32.826 68.3207 32.4513C68.5583 32.072 68.876 31.7749 69.2735 31.5601C69.6711 31.3454 70.1098 31.1854 70.5897 31.0803C71.0741 30.9706 71.5608 30.8838 72.0498 30.8198C72.6896 30.7376 73.2083 30.6759 73.6059 30.6347C74.008 30.589 74.3005 30.5136 74.4833 30.4085C74.6707 30.3034 74.7644 30.1206 74.7644 29.8601V29.8053C74.7644 29.1289 74.5793 28.6034 74.2091 28.2286C73.8435 27.8539 73.2883 27.6665 72.5434 27.6665C71.771 27.6665 71.1655 27.8356 70.7268 28.1738C70.2881 28.512 69.9796 28.873 69.8014 29.2569L68.2659 28.7085C68.5401 28.0687 68.9057 27.5706 69.3627 27.2141C69.8242 26.8531 70.3269 26.6017 70.8707 26.4601C71.4191 26.3138 71.9584 26.2407 72.4885 26.2407C72.8267 26.2407 73.2151 26.2818 73.6539 26.3641C74.0971 26.4418 74.5244 26.604 74.9357 26.8508C75.3516 27.0976 75.6966 27.47 75.9708 27.9682C76.245 28.4663 76.3821 29.1335 76.3821 29.9698V36.907H74.7644V35.4812H74.6821C74.5724 35.7097 74.3896 35.9542 74.1337 36.2146C73.8778 36.4751 73.5373 36.6968 73.1123 36.8796C72.6873 37.0624 72.1686 37.1538 71.5562 37.1538ZM71.803 35.7005C72.4428 35.7005 72.9821 35.5749 73.4208 35.3235C73.8641 35.0722 74.1977 34.7477 74.4216 34.3501C74.6501 33.9525 74.7644 33.5344 74.7644 33.0957V31.615C74.6958 31.6972 74.545 31.7727 74.3119 31.8412C74.0834 31.9052 73.8184 31.9623 73.5168 32.0126C73.2197 32.0583 72.9295 32.0994 72.6462 32.136C72.3674 32.168 72.1412 32.1954 71.9675 32.2182C71.5471 32.2731 71.1541 32.3622 70.7885 32.4856C70.4275 32.6044 70.135 32.7849 69.9111 33.0271C69.6917 33.2647 69.582 33.5892 69.582 34.0005C69.582 34.5626 69.79 34.9876 70.2058 35.2755C70.6263 35.5589 71.1587 35.7005 71.803 35.7005ZM79.3349 40.8554V26.3778H80.8978V28.0504H81.0897C81.2086 27.8676 81.3731 27.6346 81.5833 27.3512C81.7981 27.0633 82.1043 26.8074 82.5019 26.5835C82.904 26.355 83.4478 26.2407 84.1333 26.2407C85.0199 26.2407 85.8014 26.4624 86.4777 26.9056C87.1541 27.3489 87.6819 27.9773 88.0612 28.7908C88.4405 29.6042 88.6302 30.5639 88.6302 31.6698C88.6302 32.7849 88.4405 33.7514 88.0612 34.5695C87.6819 35.3829 87.1564 36.0136 86.4846 36.4614C85.8128 36.9047 85.0382 37.1264 84.1608 37.1264C83.4844 37.1264 82.9429 37.0144 82.5361 36.7905C82.1294 36.562 81.8164 36.3038 81.597 36.0159C81.3777 35.7234 81.2086 35.4812 81.0897 35.2892H80.9526V40.8554H79.3349ZM80.9252 31.6424C80.9252 32.4376 81.0418 33.1391 81.2748 33.7469C81.5079 34.3501 81.8484 34.8231 82.2962 35.1658C82.7441 35.504 83.2925 35.6731 83.9414 35.6731C84.6178 35.6731 85.1821 35.4949 85.6346 35.1384C86.0916 34.7774 86.4343 34.293 86.6628 33.6852C86.8959 33.0728 87.0124 32.3919 87.0124 31.6424C87.0124 30.9021 86.8982 30.2349 86.6697 29.6408C86.4457 29.0421 86.1053 28.5691 85.6483 28.2218C85.1959 27.8699 84.6269 27.694 83.9414 27.694C83.2833 27.694 82.7304 27.8608 82.2825 28.1944C81.8346 28.5234 81.4965 28.985 81.268 29.5791C81.0395 30.1686 80.9252 30.8564 80.9252 31.6424ZM92.7157 30.573V36.907H91.0979V22.8681H92.7157V28.023H92.8528C93.0996 27.4792 93.4698 27.0473 93.9633 26.7274C94.4614 26.403 95.1241 26.2407 95.9512 26.2407C96.6687 26.2407 97.2971 26.3847 97.8364 26.6726C98.3756 26.9559 98.7938 27.3923 99.0908 27.9819C99.3924 28.5668 99.5432 29.3117 99.5432 30.2166V36.907H97.9255V30.3263C97.9255 29.49 97.7084 28.8433 97.2742 28.3863C96.8447 27.9247 96.2483 27.694 95.4851 27.694C94.955 27.694 94.4797 27.8059 94.0593 28.0299C93.6434 28.2538 93.3144 28.5805 93.0722 29.0101C92.8345 29.4397 92.7157 29.9607 92.7157 30.573ZM102.503 36.907V26.3778H104.121V36.907H102.503ZM103.325 24.623C103.01 24.623 102.738 24.5156 102.51 24.3008C102.286 24.086 102.174 23.8278 102.174 23.5262C102.174 23.2245 102.286 22.9663 102.51 22.7516C102.738 22.5368 103.01 22.4294 103.325 22.4294C103.641 22.4294 103.91 22.5368 104.134 22.7516C104.363 22.9663 104.477 23.2245 104.477 23.5262C104.477 23.8278 104.363 24.086 104.134 24.3008C103.91 24.5156 103.641 24.623 103.325 24.623ZM111.361 37.1264C110.374 37.1264 109.524 36.8933 108.811 36.4272C108.098 35.961 107.55 35.3189 107.166 34.5009C106.782 33.6829 106.59 32.7483 106.59 31.6972C106.59 30.6279 106.787 29.6842 107.18 28.8662C107.577 28.0436 108.13 27.4015 108.839 26.9399C109.551 26.4738 110.383 26.2407 111.334 26.2407C112.074 26.2407 112.741 26.3778 113.335 26.652C113.929 26.9262 114.416 27.3101 114.795 27.8036C115.175 28.2972 115.41 28.873 115.502 29.5311H113.884C113.76 29.0512 113.486 28.6262 113.061 28.2561C112.641 27.8813 112.074 27.694 111.361 27.694C110.73 27.694 110.178 27.8585 109.702 28.1875C109.232 28.512 108.864 28.9713 108.599 29.5654C108.338 30.1549 108.208 30.8472 108.208 31.6424C108.208 32.4559 108.336 33.1642 108.592 33.7674C108.852 34.3707 109.218 34.8391 109.689 35.1727C110.164 35.5063 110.721 35.6731 111.361 35.6731C111.782 35.6731 112.163 35.6 112.506 35.4538C112.849 35.3075 113.139 35.0973 113.376 34.8231C113.614 34.5489 113.783 34.2199 113.884 33.836H115.502C115.41 34.4575 115.184 35.0173 114.823 35.5154C114.466 36.009 113.993 36.402 113.404 36.6945C112.819 36.9824 112.138 37.1264 111.361 37.1264Z" fill="#1A1A1A"/>
<path d="M9.3999 3.89998H25.2998C30.3998 3.89998 34.5999 8.1 34.5999 13.2V29.1C34.5999 34.2 30.3998 38.4 25.2998 38.4H9.3999C4.2999 38.4 0.0998535 34.2 0.0998535 29.1V13.2C0.0998535 8 4.2999 3.89998 9.3999 3.89998Z" fill="#F1A51E"/>
<path d="M19.8999 18.9H27.0999C29.2999 18.9 30.9998 20.6 30.9998 22.8V30C30.9998 32.2 29.2999 33.9 27.0999 33.9H19.8999C17.6999 33.9 15.9998 32.2 15.9998 30V22.8C15.9998 20.6 17.7999 18.9 19.8999 18.9Z" fill="#F6F6F7"/>
</svg>
